<svg width="202" height="27" fill="none" xmlns="http://www.w3.org/2000/svg"><path d="M42.7 21V1.2h5.44c1.4 0 2.71.25 3.92.76a9.73 9.73 0 0 1 5.3 5.26c.5 1.2.76 2.5.76 3.9s-.25 2.7-.76 3.9a9.7 9.7 0 0 1-5.3 5.24c-1.2.5-2.52.74-3.92.74H42.7Zm3.89-3.48h1.11c.9 0 1.73-.16 2.49-.48a5.95 5.95 0 0 0 3.29-3.37c.3-.79.46-1.64.46-2.57 0-.92-.15-1.77-.46-2.54a6.16 6.16 0 0 0-3.3-3.4 6.34 6.34 0 0 0-2.48-.48H46.6v12.84ZM67.04 21V1.2h11.01v3.4h-7.13v4.77h6.84v3.41h-6.84v4.81h7.13V21H67.04Zm25.93.38a10.8 10.8 0 0 1-6.2-2.03c-.44-.32-.8-.61-1.05-.86l2-3.21c.26.23.57.49.94.78a8.5 8.5 0 0 0 2.71 1.48c.54.16 1.1.24 1.7.24.57 0 1.06-.08 1.48-.26.44-.18.78-.44 1.02-.78.25-.35.38-.79.38-1.3 0-.48-.1-.88-.3-1.2-.2-.34-.5-.64-.9-.9a8.59 8.59 0 0 0-1.42-.8c-.56-.26-1.2-.55-1.92-.86-.54-.24-1.05-.52-1.54-.82a6.7 6.7 0 0 1-1.28-1.08 4.5 4.5 0 0 1-1.22-3.12c0-.76.15-1.49.45-2.18.3-.7.74-1.32 1.3-1.86A6.42 6.42 0 0 1 93.75.84c.72 0 1.44.1 2.16.29.72.19 1.4.44 2.02.75.62.32 1.15.66 1.58 1.02l-1.62 3.05a6.3 6.3 0 0 0-1.18-.79 6.7 6.7 0 0 0-1.39-.58 5.23 5.23 0 0 0-1.49-.21c-.56 0-1.05.1-1.45.3-.4.2-.7.47-.91.8a2.02 2.02 0 0 0-.1 1.97c.14.23.34.44.6.61.25.17.56.33.92.5l1.18.49c.93.39 1.77.78 2.52 1.16.76.38 1.4.81 1.94 1.28.53.47.94 1.01 1.22 1.64.29.62.43 1.36.43 2.23 0 1.26-.3 2.35-.91 3.25-.6.9-1.44 1.6-2.52 2.08-1.08.47-2.34.7-3.78.7Zm16.2-.38V1.2h3.89V21h-3.9Zm22.58.38a9.3 9.3 0 0 1-6.89-2.95 10.26 10.26 0 0 1-2.06-3.27c-.5-1.25-.74-2.6-.74-4.06 0-1.4.23-2.7.7-3.94a9.88 9.88 0 0 1 2-3.27 9.2 9.2 0 0 1 3.15-2.23c1.24-.55 2.62-.82 4.14-.82a12.08 12.08 0 0 1 7.32 2.5l-1.82 3a8.45 8.45 0 0 0-5.45-2.04c-.94 0-1.78.18-2.5.51-.73.33-1.34.8-1.83 1.4-.5.6-.87 1.3-1.13 2.1-.25.8-.38 1.68-.38 2.62 0 1.03.14 1.97.43 2.81.29.84.69 1.56 1.2 2.17a5.2 5.2 0 0 0 4.06 1.9 5.53 5.53 0 0 0 3.44-1.21c.46-.39.83-.84 1.1-1.36.27-.52.41-1.09.41-1.7v-.3h-5.2v-3.02h9.16v3c0 1.21-.25 2.32-.76 3.32-.5.99-1.17 1.85-2.03 2.58a9.84 9.84 0 0 1-6.32 2.26Zm18.03-.38V1.2h3.89l8.53 13.32V1.2h3.89V21h-3.9l-8.52-13.32V21h-3.9Zm35.25.38a9.6 9.6 0 0 1-3.9-.79 9.97 9.97 0 0 1-3.17-2.2 10.46 10.46 0 0 1-2.92-7.28 10.37 10.37 0 0 1 2.92-7.27 9.6 9.6 0 0 1 7.07-3 9.6 9.6 0 0 1 7.06 3c.91.94 1.63 2.03 2.14 3.28.52 1.24.78 2.57.78 4a10.32 10.32 0 0 1-6.1 9.47c-1.2.53-2.5.8-3.88.8Zm-.02-3.74a5.56 5.56 0 0 0 4.17-1.84 6.3 6.3 0 0 0 1.2-2.06c.3-.8.44-1.68.44-2.63a7.6 7.6 0 0 0-.43-2.61c-.29-.8-.7-1.5-1.21-2.08A5.46 5.46 0 0 0 185 4.58a5.46 5.46 0 0 0-4.15 1.84 6.28 6.28 0 0 0-1.21 2.08 7.8 7.8 0 0 0-.42 2.61c0 .95.14 1.83.42 2.63.29.8.7 1.48 1.21 2.06a5.46 5.46 0 0 0 4.15 1.84Z" fill="#333136"/><circle r="12" transform="matrix(0 -1 -1 0 12 12)" fill="url(#a)"/><defs><radialGradient id="a" cx="0" cy="0" r="1" gradientUnits="userSpaceOnUse" gradientTransform="matrix(12 0 0 12 12 12)"><stop stop-color="#E7816B" stop-opacity=".01"/><stop offset="1" stop-color="#E7816B"/></radialGradient></defs></svg>